Coordinates
version=1
nRows=18
nColumns=22
inDegrees=yes

Units are S.I. units (second, meters, Newtons, ...)
If the header above contains a line with 'inDegrees', this indicates whether rotational values are in degrees (yes) or radians (no).

endheader
time	pelvis_tilt	pelvis_list	pelvis_rotation	pelvis_tx	pelvis_ty	pelvis_tz	hip_flexion_r	hip_adduction_r	hip_rotation_r	knee_angle_r	ankle_angle_r	subtalar_angle_r	hip_flexion_l	hip_adduction_l	hip_rotation_l	knee_angle_l	ankle_angle_l	subtalar_angle_l	lumbar_extension	lumbar_bending	lumbar_rotation
      2.95000000	     -4.23827393	     -0.54228807	      3.38183113	      0.12957729	      0.98984077	      0.28437374	      6.93663593	     -0.32034599	     -4.52649992	    -27.71906282	     19.30107447	     -0.49895892	     27.47009884	     -4.44742529	    -15.25047585	    -14.56869581	      9.49926382	      5.49300822	     -4.39916243	     -5.63905103	      1.80643207
      2.96000000	     -4.16337443	     -0.58902071	      3.45669379	      0.12096612	      0.99044879	      0.28604688	      7.55147952	     -0.13848605	     -4.53645922	    -28.00127746	     19.11097207	     -1.20435315	     27.73967296	     -4.69100051	    -16.06429061	    -15.70345700	      9.41566190	      5.09399729	     -4.52106420	     -5.59402483	      1.44989563
      2.97000000	     -4.05391432	     -0.62635887	      3.52735403	      0.11251048	      0.99128220	      0.28760991	      8.12943774	      0.02048989	     -4.53623598	    -28.29112358	     18.83456238	     -1.81349116	     27.97465071	     -4.95794431	    -16.84780203	    -17.09262805	      9.32093904	      4.68691322	     -4.66340046	     -5.56463723	      1.11549381
      2.98000000	     -3.90994507	     -0.65042552	      3.59187805	      0.10420559	      0.99234442	      0.28906856	      8.65035621	      0.15203404	     -4.52991970	    -28.55151506	     18.48033011	     -2.32713318	     28.15915215	     -5.24202834	    -17.56900204	    -18.70470641	      9.23232305	      4.28343216	     -4.82498441	     -5.55630789	      0.81425380
      2.99000000	     -3.73457013	     -0.66663904	      3.64311437	      0.09604428	      0.99363176	      0.29044044	      9.09709691	      0.26666930	     -4.50894303	    -28.74356900	     18.06940979	     -2.74383191	     28.28141027	     -5.54622824	    -18.19923610	    -20.50219134	      9.13411814	      3.90724512	     -4.99960056	     -5.56260830	      0.55904572
      3.00000000	     -3.53474168	     -0.66967725	      3.68859267	      0.08801412	      0.99511828	      0.29170797	      9.46632081	      0.35762257	     -4.49201947	    -28.84949161	     17.60336535	     -3.10329478	     28.33694654	     -5.84955043	    -18.69283085	    -22.44771536	      9.04704826	      3.54749471	     -5.18017668	     -5.58709908	      0.34156915
      3.01000000	     -3.30298847	     -0.66496832	      3.71480014	      0.08010447	      0.99680753	      0.29290449	      9.74120877	      0.43815764	     -4.45717219	    -28.85117499	     17.07714353	     -3.32917477	     28.30874885	     -6.15462279	    -19.02937030	    -24.50951696	      8.97955855	      3.26965766	     -5.37764263	     -5.62453801	      0.17731466
      3.02000000	     -3.11902558	     -0.64331468	      3.76891401	      0.07227141	      0.99850431	      0.29392091	     10.01368602	      0.47519501	     -4.49625291	    -28.77073291	     16.56006695	     -3.68894666	     28.30066828	     -6.40809554	    -19.13906620	    -26.68170666	      8.90650364	      2.91373052	     -5.50626393	     -5.67946808	      0.00259727
      3.03000000	     -2.91484642	     -0.61173052	      3.80231796	      0.06451639	      1.00033363	      0.29486754	     10.21187067	      0.50139324	     -4.50017269	    -28.59980708	     15.97486190	     -3.85859814	     28.22080970	     -6.63527284	    -19.05689077	    -28.92483886	      8.85046237	      2.69132254	     -5.64880892	     -5.74680377	     -0.12301590
      3.04000000	     -2.75757972	     -0.57053137	      3.85252415	      0.05682347	      1.00210845	      0.29565395	     10.41896120	      0.49601929	     -4.54852893	    -28.36805352	     15.39921055	     -4.04586403	     28.16388435	     -6.80513966	    -18.76453237	    -31.24795328	      8.81595893	      2.48577668	     -5.73117561	     -5.82234886	     -0.25124525
      3.05000000	     -2.64783735	     -0.52245067	      3.90674935	      0.04919519	      1.00378723	      0.29631020	     10.64914389	      0.46655961	     -4.61718173	    -28.10296721	     14.84918736	     -4.24438531	     28.12894549	     -6.92369523	    -18.30130496	    -33.63554167	      8.80807174	      2.32591785	     -5.75045875	     -5.90615349	     -0.37139068
      3.06000000	     -2.55959889	     -0.46165446	      3.95210586	      0.04161125	      1.00540963	      0.29681105	     10.87717562	      0.41140935	     -4.66147157	    -27.80334498	     14.28367829	     -4.35578317	     28.07610208	     -6.98022239	    -17.69410714	    -36.05147154	      8.79360896	      2.26221409	     -5.74701162	     -5.99108231	     -0.47396306
      3.07000000	     -2.50375325	     -0.40085210	      3.98854223	      0.03409041	      1.00691156	      0.29716606	     11.12672028	      0.34196498	     -4.70535105	    -27.49381181	     13.72687959	     -4.43821926	     28.01805036	     -6.99444012	    -16.99394151	    -38.48802357	      8.77584533	      2.28175280	     -5.70146793	     -6.06699186	     -0.56284218
      3.08000000	     -2.47134046	     -0.34329138	      4.00950854	      0.02663697	      1.00828453	      0.29739942	     11.39311502	      0.26745671	     -4.73030458	    -27.18058525	     13.18401295	     -4.50303306	     27.93572386	     -6.97739436	    -16.23801465	    -40.91995271	      8.74933967	      2.39044563	     -5.62310691	     -6.13244234	     -0.63576769
      3.09000000	     -2.45730886	     -0.29281467	      4.00626850	      0.01924917	      1.00951998	      0.29751382	     11.67681298	      0.19496584	     -4.72577415	    -26.87196314	     12.65826461	     -4.56327294	     27.81140559	     -6.93900432	    -15.45683997	    -43.31681115	      8.71327964	      2.60040987	     -5.51707976	     -6.18136035	     -0.67949735
      3.10000000	     -2.44443704	     -0.25260191	      3.98079012	      0.01193156	      1.01063496	      0.29750360	     11.96283237	      0.12992554	     -4.69230660	    -26.57239421	     12.14620811	     -4.60821594	     27.61492453	     -6.89148217	    -14.68615072	    -45.64765660	      8.64811476	      2.89110372	     -5.40146402	     -6.20389126	     -0.70975410
      3.11000000	     -2.43077007	     -0.22714243	      3.92883405	      0.00467734	      1.01162325	      0.29739824	     12.25543448	      0.07850087	     -4.63477578	    -26.28887440	     11.65244841	     -4.64038851	     27.33328171	     -6.84784987	    -13.94261437	    -47.88116791	      8.54430189	      3.25154428	     -5.27807667	     -6.20089261	     -0.71939496
      3.12000000	     -2.42028546	     -0.21246751	      3.84860578	     -0.00251770	      1.01248332	      0.29721183	     12.55987677	      0.04050165	     -4.53905385	    -26.02124234	     11.18246502	     -4.66234961	     26.95690837	     -6.80678753	    -13.23807596	    -49.97959037	      8.39294449	      3.68517453	     -5.14167975	     -6.17903640	     -0.71184226
